{
  "accessors": [
    {
      "bufferView": 2,
      "componentType": 5126,
      "count": 6019,
      "max": [
        8.4363260269165039,
        50.165187835693359,
        1.4546382427215576
      ],
      "min": [
        -8.4363260269165039,
        -48.037364959716797,
        -1.4546382427215576
      ],
      "type": "VEC3"
    },
    {
      "bufferView": 2,
      "byteOffset": 72228,
      "componentType": 5126,
      "count": 6019,
      "max": [
        1,
        1,
        1
      ],
      "min": [
        -1,
        -1,
        -1
      ],
      "type": "VEC3"
    },
    {
      "bufferView": 3,
      "componentType": 5126,
      "count": 6019,
      "max": [
        1,
        0.99895507097244263,
        1,
        1
      ],
      "min": [
        -0.99213230609893799,
        -0.99998384714126587,
        -1,
        1
      ],
      "type": "VEC4"
    },
    {
      "bufferView": 1,
      "componentType": 5126,
      "count": 6019,
      "max": [
        0.9990234375,
        0.99377298355102539
      ],
      "min": [
        0.0009765625,
        0.00097655504941940308
      ],
      "type": "VEC2"
    },
    {
      "bufferView": 0,
      "componentType": 5125,
      "count": 24498,
      "max": [
        6018
      ],
      "min": [
        0
      ],
      "type": "SCALAR"
    }
  ],
  "asset": {
    "extras": {
      "author": "Ole Gunnar Isager (https://sketchfab.com/FrenchBaguette)",
      "license": "CC-BY-4.0 (http://creativecommons.org/licenses/by/4.0/)",
      "source": "https://sketchfab.com/3d-models/jade-sword-e17b04ace1f6446a9d7080ffd327fb4b",
      "title": "Jade Sword"
    },
    "generator": "Sketchfab-7.4.1",
    "version": "2.0"
  },
  "bufferViews": [
    {
      "buffer": 0,
      "byteLength": 97992,
      "byteOffset": 0,
      "name": "floatBufferViews",
      "target": 34963
    },
    {
      "buffer": 0,
      "byteLength": 48152,
      "byteOffset": 97992,
      "byteStride": 8,
      "name": "floatBufferViews",
      "target": 34962
    },
    {
      "buffer": 0,
      "byteLength": 144456,
      "byteOffset": 146144,
      "byteStride": 12,
      "name": "floatBufferViews",
      "target": 34962
    },
    {
      "buffer": 0,
      "byteLength": 96304,
      "byteOffset": 290600,
      "byteStride": 16,
      "name": "floatBufferViews",
      "target": 34962
    }
  ],
  "buffers": [
    {
      "byteLength": 386904,
      "uri": "scene.bin"
    }
  ],
  "images": [
    {
      "uri": "textures/MAT_Lowpoly_baseColor.png"
    },
    {
      "uri": "textures/MAT_Lowpoly_metallicRoughness.png"
    },
    {
      "uri": "textures/MAT_Lowpoly_normal.png"
    }
  ],
  "materials": [
    {
      "doubleSided": true,
      "name": "MAT_Lowpoly",
      "normalTexture": {
        "index": 2,
        "scale": 1,
        "texCoord": 0
      },
      "occlusionTexture": {
        "index": 1,
        "strength": 1,
        "texCoord": 0
      },
      "pbrMetallicRoughness": {
        "baseColorFactor": [
          1,
          1,
          1,
          1
        ],
        "baseColorTexture": {
          "index": 0,
          "texCoord": 0
        },
        "metallicFactor": 1,
        "metallicRoughnessTexture": {
          "index": 1,
          "texCoord": 0
        },
        "roughnessFactor": 1
      }
    }
  ],
  "meshes": [
    {
      "name": "polySurface10_MAT_Lowpoly_0",
      "primitives": [
        {
          "attributes": {
            "NORMAL": 1,
            "POSITION": 0,
            "TANGENT": 2,
            "TEXCOORD_0": 3
          },
          "indices": 4,
          "material": 0,
          "mode": 4
        }
      ]
    }
  ],
  "nodes": [
    {
      "children": [
        1
      ],
      "name": "RootNode (gltf orientation matrix)",
      "rotation": [
        -0.70710678118654746,
        -0,
        -0,
        0.70710678118654757
      ]
    },
    {
      "children": [
        2
      ],
      "matrix": [
        0.48538893461227417,
        0.54288822412490845,
        -0.68532472848892212,
        0,
        0.065572664141654968,
        0.75904417037963867,
        0.64772850275039673,
        0,
        0.87183588743209839,
        -0.35933879017829895,
        0.33283299207687378,
        0,
        -0.87597560882568359,
        0.012005108408629894,
        1.1239283084869385,
        1
      ],
      "name": "RootNode (model correction matrix)"
    },
    {
      "children": [
        3
      ],
      "matrix": [
        1,
        0,
        0,
        0,
        0,
        0,
        1,
        0,
        0,
        -1,
        0,
        0,
        0,
        0,
        0,
        1
      ],
      "name": "d59c46b9bf414e7c80d12df441e1b5db.fbx"
    },
    {
      "children": [
        4
      ],
      "name": "RootNode"
    },
    {
      "children": [
        5
      ],
      "name": "polySurface10"
    },
    {
      "mesh": 0,
      "name": "polySurface10_MAT_Lowpoly_0"
    }
  ],
  "samplers": [
    {
      "magFilter": 9729,
      "minFilter": 9987,
      "wrapS": 10497,
      "wrapT": 10497
    }
  ],
  "scene": 0,
  "scenes": [
    {
      "name": "OSG_Scene",
      "nodes": [
        0
      ]
    }
  ],
  "textures": [
    {
      "sampler": 0,
      "source": 0
    },
    {
      "sampler": 0,
      "source": 1
    },
    {
      "sampler": 0,
      "source": 2
    }
  ]
}

