{
    "asset" : {
        "generator" : "Khronos glTF Blender I/O v1.6.16",
        "version" : "2.0"
    },
    "scene" : 0,
    "scenes" : [
        {
            "name" : "Scene",
            "nodes" : [
                0,
                1,
                2,
                3,
                4,
                5
            ]
        }
    ],
    "nodes" : [
        {
            "mesh" : 0,
            "name" : "FairyLights_1",
            "translation" : [
                -0.12577082216739655,
                0.25537747144699097,
                0
            ]
        },
        {
            "mesh" : 1,
            "name" : "FairyLights_2",
            "translation" : [
                -0.07732993364334106,
                0.2516348659992218,
                0.0004365426430013031
            ]
        },
        {
            "mesh" : 2,
            "name" : "FairyLights_3",
            "translation" : [
                -0.025333072990179062,
                0.2586236894130707,
                0.0004365435743238777
            ]
        },
        {
            "mesh" : 3,
            "name" : "FairyLights_4",
            "translation" : [
                0.027782021090388298,
                0.2522871494293213,
                0.00040674040792509913
            ]
        },
        {
            "mesh" : 4,
            "name" : "FairyLights_5",
            "translation" : [
                0.07800839841365814,
                0.2515416443347931,
                0.0004067403788212687
            ]
        },
        {
            "mesh" : 5,
            "name" : "FairyLights_6",
            "translation" : [
                0.12786202132701874,
                0.2501438856124878,
                0.0004067401750944555
            ]
        }
    ],
    "materials" : [
        {
            "alphaMode" : "BLEND",
            "emissiveFactor" : [
                1,
                1,
                1
            ],
            "emissiveTexture" : {
                "index" : 0
            },
            "name" : "FairyLights_mtl",
            "normalTexture" : {
                "index" : 1
            },
            "occlusionTexture" : {
                "index" : 2
            },
            "pbrMetallicRoughness" : {
                "baseColorTexture" : {
                    "index" : 3
                },
                "metallicRoughnessTexture" : {
                    "index" : 2
                }
            }
        }
    ],
    "meshes" : [
        {
            "name" : "Mesh.001",
            "primitives" : [
                {
                    "attributes" : {
                        "POSITION" : 0,
                        "NORMAL" : 1,
                        "TEXCOORD_0" : 2
                    },
                    "indices" : 3,
                    "material" : 0
                }
            ]
        },
        {
            "name" : "Mesh.002",
            "primitives" : [
                {
                    "attributes" : {
                        "POSITION" : 4,
                        "NORMAL" : 5,
                        "TEXCOORD_0" : 6
                    },
                    "indices" : 7,
                    "material" : 0
                }
            ]
        },
        {
            "name" : "Mesh.003",
            "primitives" : [
                {
                    "attributes" : {
                        "POSITION" : 8,
                        "NORMAL" : 9,
                        "TEXCOORD_0" : 10
                    },
                    "indices" : 11,
                    "material" : 0
                }
            ]
        },
        {
            "name" : "Mesh.004",
            "primitives" : [
                {
                    "attributes" : {
                        "POSITION" : 12,
                        "NORMAL" : 13,
                        "TEXCOORD_0" : 14
                    },
                    "indices" : 15,
                    "material" : 0
                }
            ]
        },
        {
            "name" : "Mesh.005",
            "primitives" : [
                {
                    "attributes" : {
                        "POSITION" : 16,
                        "NORMAL" : 17,
                        "TEXCOORD_0" : 18
                    },
                    "indices" : 19,
                    "material" : 0
                }
            ]
        },
        {
            "name" : "Mesh.006",
            "primitives" : [
                {
                    "attributes" : {
                        "POSITION" : 20,
                        "NORMAL" : 21,
                        "TEXCOORD_0" : 22
                    },
                    "indices" : 23,
                    "material" : 0
                }
            ]
        }
    ],
    "textures" : [
        {
            "sampler" : 0,
            "source" : 0
        },
        {
            "sampler" : 0,
            "source" : 1
        },
        {
            "sampler" : 0,
            "source" : 2
        },
        {
            "sampler" : 0,
            "source" : 3
        }
    ],
    "images" : [
        {
            "bufferView" : 4,
            "mimeType" : "image/jpeg",
            "name" : "FairyLigths_Emissive"
        },
        {
            "bufferView" : 5,
            "mimeType" : "image/jpeg",
            "name" : "FairyLigths_Normal"
        },
        {
            "bufferView" : 6,
            "mimeType" : "image/jpeg",
            "name" : "FairyLigths_ORM"
        },
        {
            "bufferView" : 7,
            "mimeType" : "image/jpeg",
            "name" : "FairyLigths_Color"
        }
    ],
    "accessors" : [
        {
            "bufferView" : 0,
            "componentType" : 5126,
            "count" : 7028,
            "max" : [
                0.00825702864676714,
                0.00027826428413391113,
                0.004882942885160446
            ],
            "min" : [
                -0.01185683999210596,
                -0.5174921751022339,
                -0.005142482928931713
            ],
            "type" : "VEC3"
        },
        {
            "bufferView" : 1,
            "componentType" : 5126,
            "count" : 7028,
            "type" : "VEC3"
        },
        {
            "bufferView" : 2,
            "componentType" : 5126,
            "count" : 7028,
            "type" : "VEC2"
        },
        {
            "bufferView" : 3,
            "componentType" : 5123,
            "count" : 20616,
            "type" : "SCALAR"
        },
        {
            "bufferView" : 8,
            "componentType" : 5126,
            "count" : 6144,
            "max" : [
                0.008326292969286442,
                0.00014372169971466064,
                0.00847996398806572
            ],
            "min" : [
                -0.007780679501593113,
                -0.44822952151298523,
                -0.008502151817083359
            ],
            "type" : "VEC3"
        },
        {
            "bufferView" : 9,
            "componentType" : 5126,
            "count" : 6144,
            "type" : "VEC3"
        },
        {
            "bufferView" : 10,
            "componentType" : 5126,
            "count" : 6144,
            "type" : "VEC2"
        },
        {
            "bufferView" : 11,
            "componentType" : 5123,
            "count" : 18012,
            "type" : "SCALAR"
        },
        {
            "bufferView" : 12,
            "componentType" : 5126,
            "count" : 3560,
            "max" : [
                0.010023882612586021,
                0.003491021692752838,
                0.007106373086571693
            ],
            "min" : [
                -0.006802460644394159,
                -0.23307088017463684,
                -0.008377046324312687
            ],
            "type" : "VEC3"
        },
        {
            "bufferView" : 13,
            "componentType" : 5126,
            "count" : 3560,
            "type" : "VEC3"
        },
        {
            "bufferView" : 14,
            "componentType" : 5126,
            "count" : 3560,
            "type" : "VEC2"
        },
        {
            "bufferView" : 15,
            "componentType" : 5123,
            "count" : 10368,
            "type" : "SCALAR"
        },
        {
            "bufferView" : 16,
            "componentType" : 5126,
            "count" : 3312,
            "max" : [
                0.011013430543243885,
                0.0001377388834953308,
                0.007110033184289932
            ],
            "min" : [
                -0.006250029429793358,
                -0.2263118028640747,
                -0.008854327723383904
            ],
            "type" : "VEC3"
        },
        {
            "bufferView" : 17,
            "componentType" : 5126,
            "count" : 3312,
            "type" : "VEC3"
        },
        {
            "bufferView" : 18,
            "componentType" : 5126,
            "count" : 3312,
            "type" : "VEC2"
        },
        {
            "bufferView" : 19,
            "componentType" : 5123,
            "count" : 9696,
            "type" : "SCALAR"
        },
        {
            "bufferView" : 20,
            "componentType" : 5126,
            "count" : 6144,
            "max" : [
                0.014150622300803661,
                0.00021319091320037842,
                0.008509766310453415
            ],
            "min" : [
                -0.004203144460916519,
                -0.4462857246398926,
                -0.008472349494695663
            ],
            "type" : "VEC3"
        },
        {
            "bufferView" : 21,
            "componentType" : 5126,
            "count" : 6144,
            "type" : "VEC3"
        },
        {
            "bufferView" : 22,
            "componentType" : 5126,
            "count" : 6144,
            "type" : "VEC2"
        },
        {
            "bufferView" : 23,
            "componentType" : 5123,
            "count" : 18012,
            "type" : "SCALAR"
        },
        {
            "bufferView" : 24,
            "componentType" : 5126,
            "count" : 7064,
            "max" : [
                0.009765634313225746,
                0.0003764033317565918,
                0.006513799540698528
            ],
            "min" : [
                -0.005209798458963633,
                -0.5120367407798767,
                -0.009323247708380222
            ],
            "type" : "VEC3"
        },
        {
            "bufferView" : 25,
            "componentType" : 5126,
            "count" : 7064,
            "type" : "VEC3"
        },
        {
            "bufferView" : 26,
            "componentType" : 5126,
            "count" : 7064,
            "type" : "VEC2"
        },
        {
            "bufferView" : 27,
            "componentType" : 5123,
            "count" : 20664,
            "type" : "SCALAR"
        }
    ],
    "bufferViews" : [
        {
            "buffer" : 0,
            "byteLength" : 84336,
            "byteOffset" : 0
        },
        {
            "buffer" : 0,
            "byteLength" : 84336,
            "byteOffset" : 84336
        },
        {
            "buffer" : 0,
            "byteLength" : 56224,
            "byteOffset" : 168672
        },
        {
            "buffer" : 0,
            "byteLength" : 41232,
            "byteOffset" : 224896
        },
        {
            "buffer" : 0,
            "byteLength" : 86014,
            "byteOffset" : 266128
        },
        {
            "buffer" : 0,
            "byteLength" : 10108,
            "byteOffset" : 352144
        },
        {
            "buffer" : 0,
            "byteLength" : 203252,
            "byteOffset" : 362252
        },
        {
            "buffer" : 0,
            "byteLength" : 168364,
            "byteOffset" : 565504
        },
        {
            "buffer" : 0,
            "byteLength" : 73728,
            "byteOffset" : 733868
        },
        {
            "buffer" : 0,
            "byteLength" : 73728,
            "byteOffset" : 807596
        },
        {
            "buffer" : 0,
            "byteLength" : 49152,
            "byteOffset" : 881324
        },
        {
            "buffer" : 0,
            "byteLength" : 36024,
            "byteOffset" : 930476
        },
        {
            "buffer" : 0,
            "byteLength" : 42720,
            "byteOffset" : 966500
        },
        {
            "buffer" : 0,
            "byteLength" : 42720,
            "byteOffset" : 1009220
        },
        {
            "buffer" : 0,
            "byteLength" : 28480,
            "byteOffset" : 1051940
        },
        {
            "buffer" : 0,
            "byteLength" : 20736,
            "byteOffset" : 1080420
        },
        {
            "buffer" : 0,
            "byteLength" : 39744,
            "byteOffset" : 1101156
        },
        {
            "buffer" : 0,
            "byteLength" : 39744,
            "byteOffset" : 1140900
        },
        {
            "buffer" : 0,
            "byteLength" : 26496,
            "byteOffset" : 1180644
        },
        {
            "buffer" : 0,
            "byteLength" : 19392,
            "byteOffset" : 1207140
        },
        {
            "buffer" : 0,
            "byteLength" : 73728,
            "byteOffset" : 1226532
        },
        {
            "buffer" : 0,
            "byteLength" : 73728,
            "byteOffset" : 1300260
        },
        {
            "buffer" : 0,
            "byteLength" : 49152,
            "byteOffset" : 1373988
        },
        {
            "buffer" : 0,
            "byteLength" : 36024,
            "byteOffset" : 1423140
        },
        {
            "buffer" : 0,
            "byteLength" : 84768,
            "byteOffset" : 1459164
        },
        {
            "buffer" : 0,
            "byteLength" : 84768,
            "byteOffset" : 1543932
        },
        {
            "buffer" : 0,
            "byteLength" : 56512,
            "byteOffset" : 1628700
        },
        {
            "buffer" : 0,
            "byteLength" : 41328,
            "byteOffset" : 1685212
        }
    ],
    "samplers" : [
        {
            "magFilter" : 9729,
            "minFilter" : 9987
        }
    ],
    "buffers" : [
        {
            "byteLength" : 1726540,
            "uri" : "data:application/octet-stream;base64,"
        }
    ]
}
